<svg xmlns="http://www.w3.org/2000/svg" viewBox="0 0 1920 1080">
<style>.header { fill: #2C3E50; } .time-col { fill: #34495E; } .time-text { fill: white; font-family: Arial, sans-serif; } .day-text { fill: white; font-family: Arial, sans-serif; font-weight: bold; } .cell-text { fill: #2C3E50; font-family: Arial, sans-serif; } .grid-line { stroke: #BDC3C7; stroke-width: 1; } .lunch { fill: #F5F5F5; } .lunch-text { fill: #7F8C8D; font-family: Arial, sans-serif; font-weight: bold; } .conflict { stroke: #E74C3C; stroke-width: 2; } </style>
<rect width="1920" height="1080" fill="white"/>
<rect x="180.0" y="40" width="425.0" height="60" class="header"/>
<text x="392.5" y="76.0" text-anchor="middle" class="day-text" font-size="24">Lu</text>
<rect x="605.0" y="40" width="425.0" height="60" class="header"/>
<text x="817.5" y="76.0" text-anchor="middle" class="day-text" font-size="24">Ma</text>
<rect x="1030.0" y="40" width="425.0" height="60" class="header"/>
<text x="1242.5" y="76.0" text-anchor="middle" class="day-text" font-size="24">Mi</text>
<rect x="1455.0" y="40" width="425.0" height="60" class="header"/>
<text x="1667.5" y="76.0" text-anchor="middle" class="day-text" font-size="24">Ju</text>
<rect x="40" y="100.0" width="140" height="188.0" class="time-col"/>
<text x="110.0" y="199.0" text-anchor="middle" class="time-text" font-size="14">08:00 am</text>
<rect x="40" y="288.0" width="140" height="188.0" class="time-col"/>
<text x="110.0" y="387.0" text-anchor="middle" class="time-text" font-size="14">10:00 am</text>
<rect x="40" y="476.0" width="140" height="188.0" class="time-col"/>
<text x="110.0" y="575.0" text-anchor="middle" class="time-text" font-size="14">11:40 am - 01:00 pm</text>
<rect x="40" y="664.0" width="140" height="188.0" class="time-col"/>
<text x="110.0" y="763.0" text-anchor="middle" class="time-text" font-size="14">01:00 pm</text>
<rect x="40" y="852.0" width="140" height="188.0" class="time-col"/>
<text x="110.0" y="951.0" text-anchor="middle" class="time-text" font-size="14">03:00 pm</text>
<rect x="180.0" y="100.0" width="425.0" height="188.0" fill="#E8F4FD" class="grid-line"/>
<text x="188.0" y="179.0" class="cell-text" font-size="14">Mantenimiento Preventivo de PC II -</text>
<text x="188.0" y="199.0" class="cell-text" font-size="14">0503</text>
<text x="188.0" y="219.0" class="cell-text" font-size="14">I102</text>
<rect x="605.0" y="100.0" width="425.0" height="188.0" fill="#FFF3E0" class="grid-line"/>
<text x="613.0" y="179.0" class="cell-text" font-size="14">Medios y Protocolos de Comunicación -</text>
<text x="613.0" y="199.0" class="cell-text" font-size="14">0602</text>
<text x="613.0" y="219.0" class="cell-text" font-size="14">B107</text>
<rect x="1030.0" y="100.0" width="425.0" height="188.0" fill="#E8F5E9" class="grid-line"/>
<rect x="1455.0" y="100.0" width="425.0" height="188.0" fill="#F3E5F5" class="grid-line"/>
<rect x="180.0" y="288.0" width="425.0" height="188.0" fill="#E8F4FD" class="grid-line"/>
<text x="188.0" y="367.0" class="cell-text" font-size="14">Programación Lógica -</text>
<text x="188.0" y="387.0" class="cell-text" font-size="14">0411</text>
<text x="188.0" y="407.0" class="cell-text" font-size="14">B105</text>
<rect x="605.0" y="288.0" width="425.0" height="188.0" fill="#FFF3E0" class="grid-line"/>
<text x="613.0" y="367.0" class="cell-text" font-size="14">Programación Web -</text>
<text x="613.0" y="387.0" class="cell-text" font-size="14">0413</text>
<text x="613.0" y="407.0" class="cell-text" font-size="14">E201</text>
<rect x="1030.0" y="288.0" width="425.0" height="188.0" fill="#E8F5E9" class="grid-line"/>
<text x="1038.0" y="367.0" class="cell-text" font-size="14">Programación Lógica -</text>
<text x="1038.0" y="387.0" class="cell-text" font-size="14">0411</text>
<text x="1038.0" y="407.0" class="cell-text" font-size="14">B107</text>
<rect x="1455.0" y="288.0" width="425.0" height="188.0" fill="#F3E5F5" class="grid-line"/>
<text x="1463.0" y="367.0" class="cell-text" font-size="14">Medios y Protocolos de Comunicación -</text>
<text x="1463.0" y="387.0" class="cell-text" font-size="14">0602</text>
<text x="1463.0" y="407.0" class="cell-text" font-size="14">E201</text>
<rect x="180.0" y="476.0" width="425.0" height="188.0" class="lunch"/>
<rect x="605.0" y="476.0" width="425.0" height="188.0" class="lunch"/>
<rect x="1030.0" y="476.0" width="425.0" height="188.0" class="lunch"/>
<rect x="1455.0" y="476.0" width="425.0" height="188.0" class="lunch"/>
<text x="1030.0" y="575.0" text-anchor="middle" class="lunch-text" font-size="18">ALMUERZO</text>
<rect x="180.0" y="664.0" width="425.0" height="188.0" fill="#E8F4FD" class="grid-line"/>
<rect x="605.0" y="664.0" width="425.0" height="188.0" fill="#FFF3E0" class="grid-line"/>
<rect x="1030.0" y="664.0" width="425.0" height="188.0" fill="#E8F5E9" class="grid-line"/>
<text x="1038.0" y="743.0" class="cell-text" font-size="14">Administración Estratégica -</text>
<text x="1038.0" y="763.0" class="cell-text" font-size="14">0807</text>
<text x="1038.0" y="783.0" class="cell-text" font-size="14">F204</text>
<rect x="1455.0" y="664.0" width="425.0" height="188.0" fill="#F3E5F5" class="grid-line"/>
<text x="1463.0" y="743.0" class="cell-text" font-size="14">Mantenimiento Preventivo de PC II -</text>
<text x="1463.0" y="763.0" class="cell-text" font-size="14">0503</text>
<text x="1463.0" y="783.0" class="cell-text" font-size="14">I105-Taller CIDTEA</text>
<rect x="180.0" y="852.0" width="425.0" height="188.0" fill="#E8F4FD" class="grid-line"/>
<rect x="605.0" y="852.0" width="425.0" height="188.0" fill="#FFF3E0" class="grid-line"/>
<rect x="1030.0" y="852.0" width="425.0" height="188.0" fill="#E8F5E9" class="grid-line"/>
<rect x="1455.0" y="852.0" width="425.0" height="188.0" fill="#F3E5F5" class="grid-line"/>
<text x="1463.0" y="931.0" class="cell-text" font-size="14">Programación Web -</text>
<text x="1463.0" y="951.0" class="cell-text" font-size="14">0413</text>
<text x="1463.0" y="971.0" class="cell-text" font-size="14">E201</text>
</svg>